<?xml version="1.0"?>
<svg xmlns="http://www.w3.org/2000/svg" id="Icons" viewBox="0 0 74 74" width="512" height="512"><path d="M56.531,72H17.469a5.467,5.467,0,0,1-5.461-5.461V36.073a24.992,24.992,0,0,1,49.984,0V66.539A5.467,5.467,0,0,1,56.531,72ZM37,13.081A23.018,23.018,0,0,0,14.008,36.073V66.539A3.465,3.465,0,0,0,17.469,70H56.531a3.465,3.465,0,0,0,3.461-3.461V36.073A23.018,23.018,0,0,0,37,13.081Z"/><path d="M54.026,72a1,1,0,0,1-1-1V46.048a4.091,4.091,0,0,0-4.093-4.079H25.066a4.091,4.091,0,0,0-4.093,4.079V71a1,1,0,0,1-2,0V46.048a6.093,6.093,0,0,1,6.093-6.079H48.934a6.093,6.093,0,0,1,6.093,6.079V71A1,1,0,0,1,54.026,72Z"/><path d="M54.026,51.762H19.974a1,1,0,1,1,0-2H54.026a1,1,0,0,1,0,2Z"/><path d="M49.839,58.018H42.876A1,1,0,0,1,41.9,56.79l1.469-6.256a1,1,0,0,1,.974-.771H48.37a1,1,0,0,1,.974.771l1.469,6.256a1,1,0,0,1-.974,1.229Zm-5.7-2h4.439l-1-4.256H45.137Z"/><path d="M49.352,16.508a1,1,0,0,1-1-1V6.535A2.538,2.538,0,0,0,45.816,4H28.184a2.538,2.538,0,0,0-2.535,2.535v8.973a1,1,0,1,1-2,0V6.535A4.54,4.54,0,0,1,28.184,2H45.816a4.54,4.54,0,0,1,4.535,4.535v8.973A1,1,0,0,1,49.352,16.508Z"/><path d="M45.187,14.524a1,1,0,0,1-1-1V8.557A.157.157,0,0,0,44.03,8.4H29.97a.157.157,0,0,0-.156.156v4.967a1,1,0,1,1-2,0V8.557A2.159,2.159,0,0,1,29.97,6.4H44.03a2.159,2.159,0,0,1,2.156,2.156v4.967A1,1,0,0,1,45.187,14.524Z"/><path d="M64.283,63.513H60.992a1,1,0,0,1-1-1V48.64a1,1,0,0,1,1-1H67.3a1,1,0,0,1,1,1V59.494A4.024,4.024,0,0,1,64.283,63.513Zm-2.291-2h2.291a2.022,2.022,0,0,0,2.02-2.02V49.64H61.992Z"/><path d="M13.008,63.513H9.717a4.024,4.024,0,0,1-4.02-4.02V48.64a1,1,0,0,1,1-1h6.311a1,1,0,0,1,1,1V62.513A1,1,0,0,1,13.008,63.513ZM7.7,49.64v9.854a2.022,2.022,0,0,0,2.02,2.02h2.291V49.64Z"/><path d="M41.842,29.021H31.533a3.72,3.72,0,0,1,0-7.44H41.842a3.72,3.72,0,1,1,0,7.44Zm-10.309-5.44a1.72,1.72,0,0,0,0,3.44H41.842a1.72,1.72,0,1,0,0-3.44Z"/></svg>
