<?xml version="1.0" encoding="iso-8859-1"?>
<!-- Generator: Adobe Illustrator 19.0.0, SVG Export Plug-In . SVG Version: 6.00 Build 0)  -->
<svg version="1.1" id="Layer_1" xmlns="http://www.w3.org/2000/svg" xmlns:xlink="http://www.w3.org/1999/xlink" x="0px" y="0px"
	 viewBox="0 0 512.001 512.001" style="enable-background:new 0 0 512.001 512.001;" xml:space="preserve">
<g>
	<g>
		<path d="M469.862,436.335l-48.102-48.102c-3.072-3.071-8.052-3.071-11.122,0c-3.072,3.073-3.072,8.052,0,11.123l50.798,50.798
			c1.817,1.817,4.407,2.629,6.94,2.181c7.607-1.348,15.158,1.355,20.19,7.25c6.875,8.052,6.778,20.122-0.228,28.074
			c-8.111,9.208-22.682,9.724-31.372,1.032c-4.962-4.961-7.188-12.062-5.954-18.993c0.451-2.531-0.364-5.123-2.182-6.94
			C433.682,447.614,77.851,91.782,77.154,91.084c-3.475-3.474-3.475-9.13,0-12.605c3.474-3.475,9.131-3.475,12.606,0
			l299.904,299.903c3.072,3.071,8.052,3.071,11.122,0c3.072-3.073,3.072-8.052,0-11.123L290.853,257.325l66.601-66.601l46.899,2.758
			c0.154,0.009,0.308,0.014,0.463,0.014c2.08,0,4.081-0.824,5.561-2.303l91.95-91.951c6.24-6.239,9.675-14.535,9.675-23.358
			c0-8.824-3.435-17.119-9.675-23.358L460.8,11c-12.88-12.879-33.837-12.879-46.717,0l-91.95,91.951
			c-1.589,1.59-2.422,3.78-2.29,6.024l2.759,46.897l-66.602,66.602l-66.602-66.602l2.759-46.897c0.131-2.243-0.702-4.435-2.29-6.024
			L97.918,11C85.038-1.879,64.081-1.879,51.201,11L9.675,52.526C3.435,58.765,0,67.06,0,75.884c0,8.824,3.435,17.12,9.675,23.358
			l91.95,91.951c1.48,1.479,3.482,2.303,5.561,2.303c0.153,0,0.308-0.004,0.462-0.014l46.898-2.758
			c20.494,20.494,43.198,43.198,66.601,66.601L42.138,436.335c-11.689-0.752-22.906,3.949-30.667,13.037
			c-11.926,13.965-11.76,34.896,0.386,48.686c10.681,12.127,28.346,16.002,43.125,9.428c4.152-1.847,7.961-4.455,11.175-7.668
			c7.581-7.581,11.477-18.034,10.826-28.623l179.018-179.018c78.704,78.704,156.849,156.849,179.018,179.018
			c-0.65,10.588,3.245,21.042,10.826,28.622c11.451,11.453,29.677,14.181,43.948,6.499c3.911-2.105,7.418-4.927,10.352-8.257
			c12.146-13.789,12.31-34.72,0.386-48.686C492.769,440.286,481.544,435.589,469.862,436.335z M425.206,22.123
			c6.747-6.746,17.725-6.748,24.471,0l41.526,41.525c6.669,6.671,6.67,17.801,0,24.471l-89.453,89.454l-29.415-1.73
			c0,0,73.62-73.62,73.634-73.633c4.654-4.654,7.218-10.843,7.218-17.426s-2.563-12.772-7.218-17.426
			c-9.608-9.607-25.243-9.608-34.852,0l-73.633,73.632l-1.73-29.413L425.206,22.123z M422.087,78.632l0.153-0.153
			c3.475-3.475,9.131-3.475,12.606,0c3.475,3.474,3.475,9.13-0.005,12.609c-0.253,0.254-155.112,155.112-155.112,155.112
			l-12.606-12.606L422.087,78.632z M110.25,177.573L20.799,88.119c-6.67-6.67-6.67-17.8,0-24.47l41.525-41.526
			c6.747-6.747,17.725-6.747,24.471,0l89.452,89.453l-1.73,29.413l-73.632-73.633c-9.608-9.608-25.243-9.608-34.852,0
			c-9.609,9.609-9.609,25.243-0.012,34.841c0.038,0.039,30.314,30.314,73.645,73.645L110.25,177.573z M63.171,462.76
			c-1.817,1.817-2.632,4.41-2.182,6.94c1.233,6.931-0.992,14.031-5.954,18.994c-8.693,8.687-23.262,8.176-31.372-1.033
			c-7.005-7.953-7.103-20.024-0.228-28.074c5.033-5.893,12.582-8.599,20.19-7.25c2.535,0.456,5.122-0.365,6.94-2.181
			l181.707-181.707c4.191,4.191,8.395,8.395,12.606,12.606L63.171,462.76z"/>
	</g>
</g>
<g>
</g>
<g>
</g>
<g>
</g>
<g>
</g>
<g>
</g>
<g>
</g>
<g>
</g>
<g>
</g>
<g>
</g>
<g>
</g>
<g>
</g>
<g>
</g>
<g>
</g>
<g>
</g>
<g>
</g>
</svg>
